<?xml version="1.0" encoding="UTF-8" standalone="no"?>
<svg viewBox="0 -960 960 960" width="48">
   <defs id="defs3">
    <style
       id="current-color-scheme"
       type="text/css">.ColorScheme-Text { color:#363636; }</style>
  </defs>
  <path
     d="m 823.5,-330.5 h -94 v -74 h -502 v 74 h -95 v -74 q 0,-39.462 27.769,-67.231 27.768,-27.769 67.231,-27.769 h 502 q 39.05,0 66.525,27.769 27.475,27.769 27.475,67.231 z m 0,-343 q 0,39.05 -27.475,66.525 Q 768.55,-579.5 729.5,-579.5 h -502 q -39.463,0 -67.231,-27.475 Q 132.5,-634.45 132.5,-673.5 v -181 q 0,-39.05 27.769,-66.525 27.768,-27.475 67.231,-27.475 h 502 q 39.05,0 66.525,27.475 27.475,27.475 27.475,66.525 z m -168,502 -66,67 -65,-61 v 153 h -93 v -153 l -62,61 -66,-66 175,-175 z"
     id="path1" 
     style="fill:currentColor"
     class="ColorScheme-Text"
     />
</svg>
